Coordinates
version=1
nRows=26
nColumns=24
inDegrees=yes

Units are S.I. units (second, meters, Newtons, ...)
If the header above contains a line with 'inDegrees', this indicates whether rotational values are in degrees (yes) or radians (no).

endheader
time	pelvis_tilt	pelvis_list	pelvis_rotation	pelvis_tx	pelvis_ty	pelvis_tz	hip_flexion_r	hip_adduction_r	hip_rotation_r	knee_angle_r	ankle_angle_r	subtalar_angle_r	mtp_angle_r	hip_flexion_l	hip_adduction_l	hip_rotation_l	knee_angle_l	ankle_angle_l	subtalar_angle_l	mtp_angle_l	lumbar_extension	lumbar_bending	lumbar_rotation
      1.00000000	      4.87933111	     -0.02324886	      0.29234516	      0.59298606	      1.04456168	      0.04550557	     -2.71266245	      1.87083070	     -3.73410612	    -11.64817051	      7.96596194	     -0.00000121	      0.00000000	     18.74388331	     -3.05265564	     -4.13990787	    -57.77277697	      1.43228878	     -0.00000123	      0.00000000	    -16.43708998	      1.07780244	      1.18637414
      1.01700000	      4.93570904	     -0.04719052	      0.03591856	      0.59107976	      1.04449532	      0.04660265	     -4.18834926	      1.98891424	     -3.52439972	    -10.89348199	      8.35994536	     -0.00000114	      0.00000000	     19.42974830	     -3.07823050	     -4.56541937	    -53.51196087	      1.67347660	     -0.00000243	      0.00000000	    -16.58171628	      0.94588428	      1.52469647
      1.03300000	      4.95491747	     -0.25544869	     -0.14266496	      0.58911666	      1.04396621	      0.04778965	     -5.71386764	      2.31409240	     -3.40129668	     -9.96589826	      8.67277685	     -0.00000127	      0.00000000	     19.94904330	     -3.44455509	     -5.28927658	    -48.75309469	      1.62652413	     -0.00000360	      0.00000000	    -16.71617833	      1.04203158	      1.84734057
      1.05000000	      5.09490082	     -0.58075719	     -0.25330628	      0.58716308	      1.04329653	      0.04848254	     -7.33529979	      2.72801885	     -3.33825691	     -9.12406760	      8.97028943	     -0.00000127	      0.00000000	     20.09393760	     -3.93835628	     -6.27267536	    -43.47873864	      1.26800680	     -0.00000498	      0.00000000	    -17.04562628	      1.26052549	      1.98120576
      1.06700000	      4.96935236	     -1.16665995	     -0.53790198	      0.58506467	      1.04159960	      0.04933740	     -8.59547432	      3.37618481	     -3.01892998	     -8.42127138	      9.29451396	     -0.00000124	      0.00000000	     20.36268527	     -4.71992804	     -7.53381965	    -37.97067572	      0.73223274	     -0.00000593	      0.00000000	    -16.90170696	      1.78083005	      2.43437981
      1.08300000	      4.88804766	     -1.57031317	     -0.79477069	      0.58336405	      1.03967831	      0.04962385	     -9.96190989	      3.77278520	     -2.56222996	     -7.69098732	      9.67865751	     -0.00000123	      0.00000000	     20.30613486	     -5.13644139	     -8.86543197	    -32.06275211	     -0.03307238	     -0.00000652	      0.00000000	    -16.96776618	      1.99955590	      2.63952091
      1.10000000	      4.75221017	     -2.14921164	     -1.06613255	      0.58209477	      1.03725673	      0.05013456	    -11.38799369	      4.34690135	     -2.06757353	     -6.80745626	      9.94413637	     -0.00000113	      0.00000000	     20.28468956	     -5.59429983	     -9.87947923	    -26.32450892	     -0.71563701	     -0.00000621	      0.00000000	    -16.83198795	      2.48521738	      3.05455817
      1.11700000	      4.55045122	     -2.61199330	     -1.30806192	      0.58080255	      1.03445774	      0.05034215	    -12.58471523	      4.77358278	     -1.48593464	     -6.29507015	     10.41583738	     -0.00000107	      0.00000000	     20.18829991	     -5.71217804	    -10.26208065	    -20.50404182	     -1.32620945	     -0.00000553	      0.00000000	    -16.73212113	      2.84440534	      3.12162005
      1.13300000	      4.40613016	     -3.16946254	     -1.79064839	      0.57924174	      1.03138866	      0.05031470	    -13.71981397	      5.18781309	     -0.63169149	     -6.03034336	     10.96401646	     -0.00000104	      0.00000000	     20.03529644	     -5.90395734	    -10.09045563	    -15.09705654	     -1.62936743	     -0.00000432	      0.00000000	    -16.70826801	      3.18576330	      3.62620814
      1.15000000	      4.46359003	     -3.66408105	     -2.03264462	      0.57844117	      1.02847370	      0.04982800	    -15.12688657	      5.54753530	     -0.00143955	     -5.72241892	     11.46003862	     -0.00000095	      0.00000000	     19.50350392	     -5.92818713	     -9.08281071	     -9.91134647	     -1.73833124	     -0.00000331	      0.00000000	    -16.80852604	      3.60856266	      3.94423985
      1.16700000	      4.42747462	     -4.01301151	     -2.37629969	      0.57806002	      1.02518753	      0.04966375	    -16.50384029	      5.72646498	      0.54775716	     -5.33690312	     11.89707609	     -0.00000083	      0.00000000	     19.13730242	     -5.95345781	     -7.86227217	     -5.68841906	     -1.52026556	     -0.00000222	      0.00000000	    -16.91732722	      3.63670661	      3.90041973
      1.18300000	      4.54462727	     -4.35646217	     -2.92026292	      0.57751133	      1.02230076	      0.04926008	    -17.78641676	      5.76298963	      1.24483894	     -5.46045742	     12.42724771	     -0.00000071	      0.00000000	     18.68611073	     -6.10405621	     -6.84619597	     -2.58649829	     -1.11938598	     -0.00000148	      0.00000000	    -17.03620589	      3.75431280	      4.53683691
      1.20000000	      4.43720215	     -4.46878190	     -3.19803193	      0.57780789	      1.01926737	      0.04877067	    -18.90269200	      5.65085406	      1.60363202	     -5.47417768	     12.80816966	     -0.00000055	      0.00000000	     18.60819070	     -6.02057288	     -5.86705755	     -0.71905747	     -0.75749562	     -0.00000091	      0.00000000	    -16.92756685	      3.53572728	      4.26103603
      1.21700000	      4.56794051	     -4.57004509	     -3.44362260	      0.57738710	      1.01703781	      0.04797453	    -19.84595866	      5.49502157	      1.96360640	     -6.23872261	     13.29404051	     -0.00000029	      0.00000000	     18.66667787	     -5.96008334	     -5.05602140	     -0.58029452	     -0.42661676	     -0.00000083	      0.00000000	    -17.15663865	      3.28638732	      4.38227365
      1.23300000	      4.64665120	     -4.48781750	     -3.76867280	      0.57769392	      1.01517726	      0.04694478	    -20.60724929	      5.10363959	      2.39797690	     -7.26205245	     13.73116562	      0.00000008	      0.00000000	     18.82965788	     -5.73817871	     -4.55369129	     -1.58572189	     -0.42494636	     -0.00000091	      0.00000000	    -17.19053219	      2.80047517	      4.26818882
      1.25000000	      4.58086488	     -4.30718141	     -4.37031866	      0.57916879	      1.01374181	      0.04531145	    -21.08072960	      4.46559374	      3.04551987	     -8.64124179	     14.03027155	      0.00000049	      0.00000000	     19.10065218	     -5.46861195	     -4.46344570	     -3.46192055	     -0.79356762	     -0.00000119	      0.00000000	    -16.94833033	      2.31331318	      4.51662666
      1.26700000	      4.43454289	     -4.03918845	     -4.41924388	      0.58130021	      1.01239224	      0.04343531	    -21.25921886	      3.98123948	      3.16121219	    -10.45505495	     14.25633772	      0.00000094	      0.00000000	     19.66008837	     -4.99137836	     -3.98836356	     -6.04041422	     -1.55981579	     -0.00000151	      0.00000000	    -16.48158716	      1.75918510	      4.33122972
      1.28300000	      4.21508321	     -4.15639531	     -4.62422422	      0.58223500	      1.01141057	      0.04207476	    -20.89492608	      3.88975625	      3.46493681	    -13.07732767	     14.28254916	      0.00000135	      0.00000000	     20.22937823	     -5.01896359	     -3.73032131	     -8.61332446	     -2.67210316	     -0.00000172	      0.00000000	    -16.25057847	      1.45875105	      4.27146546
      1.30000000	      4.10510985	     -3.98226532	     -4.85734836	      0.58474044	      1.01119859	      0.04048355	    -20.69172834	      3.44730283	      3.61621511	    -15.61868682	     13.78601103	      0.00000197	      0.00000000	     20.57310765	     -4.77620594	     -3.74232946	    -11.26130297	     -3.51984582	     -0.00000191	      0.00000000	    -15.86954622	      0.76369083	      4.16577703
      1.31700000	      4.22621421	     -3.70400383	     -5.03290085	      0.58774329	      1.01182485	      0.03863942	    -20.17783741	      2.91197972	      3.62486267	    -19.17307069	     12.98459457	      0.00000255	      0.00000000	     20.50266310	     -4.41078543	     -3.88069763	    -13.70105461	     -4.03604314	     -0.00000200	      0.00000000	    -15.68901312	      0.02315803	      3.86079879
      1.33300000	      4.42870099	     -3.41728852	     -5.09606388	      0.59091519	      1.01299168	      0.03659191	    -19.23819692	      2.38915879	      3.32146788	    -23.53823716	     11.59943099	      0.00000328	      0.00000000	     20.17518916	     -4.00346128	     -3.98439306	    -15.89926923	     -4.13119617	     -0.00000220	      0.00000000	    -15.53783941	     -0.71449231	      3.63816478
      1.35000000	      4.87504590	     -3.04400775	     -5.00934351	      0.59424414	      1.01492046	      0.03399264	    -18.01053350	      1.70803137	      2.46076250	    -28.63746601	      9.32360027	      0.00000403	      0.00000000	     19.34488654	     -3.42200118	     -4.01825750	    -17.70120405	     -3.86148001	     -0.00000230	      0.00000000	    -15.60827025	     -1.44728847	      3.28415693
      1.36700000	      5.16272522	     -2.61020381	     -4.77024652	      0.59728406	      1.01677125	      0.03064248	    -16.00715543	      0.82886413	      0.99367074	    -34.43969595	      6.01738485	      0.00000462	      0.00000000	     18.46357689	     -2.71224501	     -3.98831892	    -19.06502374	     -3.31805303	     -0.00000232	      0.00000000	    -15.55784843	     -2.11500927	      2.71419467
      1.38300000	      5.33626873	     -2.05560441	     -4.63492213	      0.59967096	      1.01854651	      0.02699460	    -13.34438444	     -0.47837195	     -0.77034753	    -40.62577631	      1.82664840	      0.00000467	      0.00000000	     17.43358449	     -1.88364365	     -4.11257812	    -19.89001845	     -2.58772210	     -0.00000226	      0.00000000	    -15.50585558	     -2.82138208	      2.38330549
      1.40000000	      5.40676142	     -1.49151153	     -4.46924232	      0.60130011	      1.02025268	      0.02343169	    -10.35025095	     -1.99054865	     -2.57054160	    -46.56690517	     -2.72844547	      0.00000356	      0.00000000	     16.41791517	     -1.02599168	     -4.15858026	    -20.47837938	     -1.64523060	     -0.00000210	      0.00000000	    -15.30477883	     -3.48959867	      1.69152276
      1.41700000	      5.63173072	     -0.90493375	     -4.37955549	      0.60262432	      1.02271342	      0.01969257	     -7.55849499	     -3.66520544	     -4.03911910	    -51.81768276	     -6.65932044	      0.00000163	      0.00000000	     14.86761726	     -0.09031736	     -4.28414002	    -20.32442184	     -0.77333432	     -0.00000207	      0.00000000	    -15.42848203	     -4.12710705	      1.17597661
